<?xml version="1.0" encoding="utf-8"?>
<!-- Generator: Adobe Illustrator 18.0.0, SVG Export Plug-In . SVG Version: 6.00 Build 0)  -->
<!DOCTYPE svg PUBLIC "-//W3C//DTD SVG 1.1//EN" "http://www.w3.org/Graphics/SVG/1.1/DTD/svg11.dtd">
<svg version="1.1" id="Layer_1" xmlns="http://www.w3.org/2000/svg" xmlns:xlink="http://www.w3.org/1999/xlink" x="0px" y="0px"
	 viewBox="0 0 204 65" enable-background="new 0 0 204 65" xml:space="preserve">
<g>
	<g>
		<linearGradient id="SVGID_1_" gradientUnits="userSpaceOnUse" x1="56.8268" y1="18.5966" x2="34.6257" y2="4.14">
			<stop  offset="0" style="stop-color:#80C3E6"/>
			<stop  offset="1" style="stop-color:#3380C2"/>
		</linearGradient>
		<polygon fill="url(#SVGID_1_)" points="49.5,27.4 61.9,7.5 32,7.5 27.8,14.1 		"/>
		<polygon opacity="0.15" points="27.8,14.1 30,10.7 49.5,27.4 		"/>
		<linearGradient id="SVGID_2_" gradientUnits="userSpaceOnUse" x1="60.7242" y1="51.983" x2="44.1279" y2="41.0231">
			<stop  offset="0" style="stop-color:#F38649"/>
			<stop  offset="0.1849" style="stop-color:#F28147"/>
			<stop  offset="0.4091" style="stop-color:#EF7242"/>
			<stop  offset="0.6537" style="stop-color:#EA5A3A"/>
			<stop  offset="0.911" style="stop-color:#E4382E"/>
			<stop  offset="1" style="stop-color:#E12A29"/>
		</linearGradient>
		<polygon fill="url(#SVGID_2_)" points="56,63.5 56,33.6 49.6,29.5 36,51 		"/>
		<polygon opacity="0.15" points="36,51 39.4,53.1 49.6,29.5 		"/>
		<linearGradient id="SVGID_3_" gradientUnits="userSpaceOnUse" x1="6.0379" y1="28.5714" x2="37.7881" y2="8.7317">
			<stop  offset="0" style="stop-color:#42AB4A"/>
			<stop  offset="1" style="stop-color:#ADD155"/>
		</linearGradient>
		<polygon fill="url(#SVGID_3_)" points="7.8,1.5 7.8,31.4 14.8,35.5 49.5,27.4 		"/>
		<linearGradient id="SVGID_4_" gradientUnits="userSpaceOnUse" x1="12.9707" y1="64.0791" x2="38.7787" y2="22.7776">
			<stop  offset="0" style="stop-color:#42AB4A"/>
			<stop  offset="1" style="stop-color:#ADD155"/>
		</linearGradient>
		<polygon fill="url(#SVGID_4_)" points="14.6,37.8 2.2,57.3 32.1,57.3 49.6,29.5 		"/>
	</g>
	<g>
		<path d="M67.6,46.6h3.9l2-24.4h-4v-3.4h8.8l8,19.1c0.5,1.3,0.7,2.3,0.7,2.3h0.1c0,0,0.2-1,0.7-2.3l8-19.1h8.8v3.4h-4l2,24.4h3.9
			v3.5h-12v-3.5h3.7l-1.4-18.7c0-1,0.1-2.6,0.1-2.6h-0.1c0,0-0.4,1.5-0.7,2.4L89,44.2h-3.9L78,27.7c-0.4-0.9-0.7-2.4-0.7-2.4h-0.1
			c0,0,0.2,1.6,0.1,2.6l-1.4,18.7h3.7v3.5h-12V46.6z"/>
		<path d="M124.9,18.2c9,0,16,7,16,16c0,9.2-7,16.4-16,16.4c-9,0-16-7.2-16-16.4C108.9,25.2,115.9,18.2,124.9,18.2z M124.9,46.7
			c6.3,0,11.4-5.4,11.4-12.5c0-6.8-5.1-12.1-11.4-12.1c-6.3,0-11.5,5.2-11.5,12.1C113.4,41.2,118.6,46.7,124.9,46.7z"/>
		<path d="M143.8,46.6h3.9V22.2h-3.9v-3.4h13.3c2.6,0,4.5,0.1,6.6,0.8c5.9,1.9,9.8,7.3,9.8,14.9c0,7.6-3.7,12.9-9.8,14.8
			c-2,0.7-4.1,0.8-6.6,0.8h-13.3V46.6z M156.9,46.4c2,0,3.7-0.2,5.3-0.8c4.2-1.5,6.8-5.5,6.8-11.2c0-5.8-2.6-9.8-6.7-11.3
			c-1.7-0.6-3.3-0.7-5.3-0.7h-4.8v24H156.9z"/>
		<path d="M175.1,46.6h2.9l8-12.4l-7.9-12.1h-2.9v-3.4h9.8v3.4h-2.3l5.2,8.2c0.5,0.7,0.8,1.2,0.8,1.2h0.1c0,0,0.3-0.6,0.7-1.2l5-8.2
			h-2.2v-3.4h9.5v3.4h-2.9l-8.1,12.5l7.9,12h3v3.5h-9.8v-3.5h2.3l-5.2-8.2c-0.5-0.7-0.8-1.3-0.8-1.3h-0.1c0,0-0.3,0.6-0.7,1.3
			l-5,8.2h2.3v3.5h-9.6V46.6z"/>
	</g>
</g>
</svg>
